<svg width="24" height="24" viewBox="0 0 24 24" fill="none"
    xmlns="http://www.w3.org/2000/svg">
    <path d="M6 19.616c-.444 0-.825-.159-1.14-.475a1.556 1.556 0 0 1-.475-1.14c0-.445.158-.825.474-1.142A1.555 1.555 0 0 1 6 16.385c.444 0 .824.158 1.14.474.317.317.475.697.475 1.141 0 .444-.158.825-.474 1.141A1.556 1.556 0 0 1 6 19.616Zm6 0c-.444 0-.825-.159-1.14-.475a1.556 1.556 0 0 1-.475-1.14c0-.445.158-.825.474-1.142A1.555 1.555 0 0 1 12 16.385c.444 0 .825.158 1.14.474.317.317.475.697.475 1.141 0 .444-.158.825-.474 1.141a1.555 1.555 0 0 1-1.141.475Zm6 0c-.444 0-.825-.159-1.14-.475a1.556 1.556 0 0 1-.475-1.14c0-.445.158-.825.474-1.142A1.555 1.555 0 0 1 18 16.385c.444 0 .825.158 1.14.474.317.317.475.697.475 1.141 0 .444-.158.825-.474 1.141a1.555 1.555 0 0 1-1.141.475Zm-12-6c-.444 0-.825-.159-1.14-.475a1.556 1.556 0 0 1-.475-1.14c0-.445.158-.825.474-1.142A1.555 1.555 0 0 1 6 10.385c.444 0 .824.158 1.14.474.317.317.475.697.475 1.141 0 .444-.158.825-.474 1.141A1.556 1.556 0 0 1 6 13.616Zm6 0c-.444 0-.825-.159-1.14-.475a1.556 1.556 0 0 1-.475-1.14c0-.445.158-.825.474-1.142A1.555 1.555 0 0 1 12 10.385c.444 0 .825.158 1.14.474.317.317.475.697.475 1.141 0 .444-.158.825-.474 1.141a1.555 1.555 0 0 1-1.141.475Zm6 0c-.444 0-.825-.159-1.14-.475a1.556 1.556 0 0 1-.475-1.14c0-.445.158-.825.474-1.142A1.555 1.555 0 0 1 18 10.385c.444 0 .825.158 1.14.474.317.317.475.697.475 1.141 0 .444-.158.825-.474 1.141a1.555 1.555 0 0 1-1.141.475Zm-12-6c-.444 0-.825-.159-1.14-.475a1.556 1.556 0 0 1-.475-1.14c0-.445.158-.825.474-1.142A1.556 1.556 0 0 1 6 4.385c.444 0 .824.158 1.14.474.317.317.475.697.475 1.141 0 .444-.158.825-.474 1.141A1.556 1.556 0 0 1 6 7.615Zm6 0c-.444 0-.825-.159-1.14-.475a1.556 1.556 0 0 1-.475-1.14c0-.445.158-.825.474-1.142A1.556 1.556 0 0 1 12 4.385c.444 0 .825.158 1.14.474.317.317.475.697.475 1.141 0 .444-.158.825-.474 1.141A1.555 1.555 0 0 1 12 7.615Zm6 0c-.444 0-.825-.159-1.14-.475a1.556 1.556 0 0 1-.475-1.14c0-.445.158-.825.474-1.142A1.556 1.556 0 0 1 18 4.385c.444 0 .825.158 1.14.474.317.317.475.697.475 1.141 0 .444-.158.825-.474 1.141A1.555 1.555 0 0 1 18 7.615Z" fill="#fff"></path>
</svg>