<svg width="20" height="20" viewBox="0 0 20 20" fill="none"
    xmlns="http://www.w3.org/2000/svg">
    <path d="M4.295 15.833h1.03l7.717-7.716-1.03-1.03-7.717 7.716v1.03Zm11.42-8.62-2.812-2.787 1.094-1.094c.24-.24.534-.36.885-.36.35 0 .645.12.884.36l1.03 1.03c.24.24.364.53.373.872.008.342-.107.632-.346.872l-1.108 1.107Zm-11.917 9.87a.73.73 0 0 1-.537-.215.73.73 0 0 1-.216-.538v-1.745a.754.754 0 0 1 .226-.54L12 5.317 14.81 8.13l-8.727 8.727a.754.754 0 0 1-.253.172.766.766 0 0 1-.287.054H3.798Z" fill="#13A2E4"></path>
</svg>