<svg width="15" height="15" viewBox="0 0 15 15" fill="none"
    xmlns="http://www.w3.org/2000/svg">
    <path d="M7.5 12.25a.976.976 0 0 1-.274-.039 2.278 2.278 0 0 1-.273-.102l-2.922-1.593a1.156 1.156 0 0 1-.437-.414 1.11 1.11 0 0 1-.156-.586V6.812l-1.25-.687a.609.609 0 0 1-.227-.219.562.562 0 0 1-.07-.281c0-.104.023-.198.07-.281a.609.609 0 0 1 .226-.219l4.766-2.594a1.073 1.073 0 0 1 .82-.102c.09.027.18.06.274.102l5.375 2.938a.5.5 0 0 1 .227.21c.046.09.07.186.07.29v3.687a.464.464 0 0 1-.133.328.444.444 0 0 1-.336.141.45.45 0 0 1-.328-.14.45.45 0 0 1-.14-.329V6.141l-1.22.671v2.704a1.11 1.11 0 0 1-.593 1l-2.922 1.593a2.278 2.278 0 0 1-.273.102.976.976 0 0 1-.274.039Zm-.078-4.344c.031.01.057.016.078.016.02 0 .047-.005.078-.016l4.203-2.281-4.203-2.266a.152.152 0 0 0-.078-.03c-.02 0-.047.01-.078.03L3.219 5.625l4.203 2.281Zm0 3.39c.031.011.057.017.078.017.02 0 .047-.006.078-.016l2.953-1.594a.22.22 0 0 0 .07-.07.191.191 0 0 0 .024-.102V7.312L8.047 8.72a.843.843 0 0 1-.266.11 1.293 1.293 0 0 1-.562 0 .843.843 0 0 1-.266-.11L4.375 7.313V9.53a.21.21 0 0 0 .094.172l2.953 1.594Z" fill="#FF7900"></path>
</svg>