<svg width="20" height="20" viewBox="0 0 20 20" fill="none"
    xmlns="http://www.w3.org/2000/svg">
    <path d="M8.817 11.789 6.881 9.853a.604.604 0 0 0-.435-.177.589.589 0 0 0-.443.177.598.598 0 0 0-.181.439c0 .172.06.318.181.439l2.287 2.287c.15.15.326.226.527.226s.377-.076.527-.226l4.637-4.637a.604.604 0 0 0 .177-.435.589.589 0 0 0-.177-.443.598.598 0 0 0-.44-.18.598.598 0 0 0-.439.18L8.817 11.79Zm1.184 6.128a7.711 7.711 0 0 1-3.087-.624A7.997 7.997 0 0 1 4.4 15.602a7.994 7.994 0 0 1-1.693-2.514 7.705 7.705 0 0 1-.624-3.087c0-1.095.208-2.124.624-3.087A7.997 7.997 0 0 1 4.398 4.4a7.993 7.993 0 0 1 2.514-1.693 7.704 7.704 0 0 1 3.087-.624c1.094 0 2.124.208 3.087.624.963.415 1.802.98 2.514 1.692a7.992 7.992 0 0 1 1.693 2.513c.416.963.623 1.992.623 3.087a7.71 7.71 0 0 1-.623 3.087 7.995 7.995 0 0 1-1.692 2.514 7.992 7.992 0 0 1-2.513 1.693 7.705 7.705 0 0 1-3.087.624Z" fill="#3EBA9F"></path>
</svg>