<svg width="23" height="23" viewBox="0 0 23 23" fill="#"
    xmlns="http://www.w3.org/2000/svg">
    <path d="M8.428 10.173c-.328 0-.578-.149-.749-.445a.792.792 0 0 1 .018-.878l3.063-5.02a.811.811 0 0 1 .74-.419c.327 0 .574.14.741.418l3.063 5.02a.792.792 0 0 1 .018.879c-.171.296-.421.445-.75.445H8.429Zm8.343 10.542c-1.1 0-2.032-.383-2.796-1.148-.765-.765-1.147-1.697-1.147-2.796 0-1.1.382-2.032 1.147-2.797.764-.765 1.697-1.147 2.796-1.147 1.1 0 2.032.382 2.797 1.147.765.765 1.147 1.697 1.147 2.797s-.382 2.031-1.147 2.796c-.765.765-1.697 1.148-2.797 1.148Zm-12.663-.48a.834.834 0 0 1-.616-.249.84.84 0 0 1-.248-.617v-5.2c0-.245.083-.45.25-.615a.84.84 0 0 1 .617-.248H9.31c.245 0 .45.083.616.249a.84.84 0 0 1 .248.617v5.2c0 .245-.083.45-.25.616a.84.84 0 0 1-.617.247H4.108Zm12.663-.958c.702 0 1.295-.242 1.78-.727.484-.484.727-1.077.727-1.78 0-.7-.242-1.294-.727-1.779-.484-.484-1.078-.727-1.78-.727-.701 0-1.294.243-1.779.727-.485.485-.727 1.078-.727 1.78 0 .701.242 1.294.727 1.779.484.485 1.077.727 1.78.727Zm-12.09-.48h4.055v-4.054H4.682v4.055ZM9.43 8.736h4.143l-2.071-3.332-2.072 3.332Z" fill="#ff7900"></path>
</svg>