<svg width="15" height="15" viewBox="0 0 15 15" fill="none"
    xmlns="http://www.w3.org/2000/svg">
    <path d="M6.844 7.875a.581.581 0 0 0 .211-.04.508.508 0 0 0 .18-.116L9.39 5.562a.459.459 0 0 0 .14-.336.458.458 0 0 0-.14-.335.458.458 0 0 0-.336-.141.459.459 0 0 0-.336.14L6.844 6.767l-.547-.532a.45.45 0 0 0-.656 0 .458.458 0 0 0-.141.336c0 .13.047.237.14.32l.813.829a.507.507 0 0 0 .18.117c.068.026.138.039.21.039Zm.656 4.5c1.292-1.146 2.266-2.242 2.922-3.29.656-1.046.984-1.95.984-2.71 0-1.188-.377-2.156-1.132-2.906-.756-.75-1.68-1.125-2.774-1.125s-2.018.375-2.774 1.125c-.755.75-1.132 1.719-1.132 2.906 0 .76.328 1.664.984 2.71.656 1.048 1.63 2.144 2.922 3.29Zm0 1.031a.794.794 0 0 1-.219-.031.552.552 0 0 1-.203-.11c-1.479-1.343-2.586-2.588-3.32-3.734S2.656 7.333 2.656 6.375c0-1.51.487-2.716 1.461-3.618.974-.9 2.102-1.35 3.383-1.35 1.281 0 2.409.45 3.383 1.35.974.902 1.46 2.108 1.46 3.618 0 .958-.366 2.01-1.1 3.156-.735 1.146-1.842 2.39-3.321 3.735a.552.552 0 0 1-.203.109.794.794 0 0 1-.219.031Z" fill="#FF7900"></path>
</svg>