<svg width="24" height="13" viewBox="0 0 24 13" fill="none"
    xmlns="http://www.w3.org/2000/svg">
    <path d="m21.57 5.222-2.509-3.44A4.334 4.334 0 0 0 15.557 0H4.333A4.332 4.332 0 0 0 0 4.333v4.334A4.332 4.332 0 0 0 4.333 13h11.224c1.386 0 2.686-.66 3.504-1.782l2.508-3.44a2.162 2.162 0 0 0 0-2.556ZM17.76 8.125c-.899 0-1.625-.726-1.625-1.625 0-.9.726-1.625 1.625-1.625.9 0 1.625.726 1.625 1.625 0 .9-.726 1.625-1.625 1.625Z" fill="#3EAE8D"></path>
    <path d="M22.04 5.65a4.452 4.452 0 0 1-.167.157c-.759.704-1.577 1.191-2.351 1.414-.12.032-.233.06-.347.08a3.011 3.011 0 0 1-.525.05c-.547 0-1.008-.174-1.349-.51-.395-.39-.569-.975-.487-1.657a1.6 1.6 0 0 1 .947-.309c.065 0 .125.006.19.016a.674.674 0 0 1-.016.147c-.065.276-.136.774.13 1.034.216.211.639.255 1.159.109.038-.011.081-.022.12-.038.622-.206 1.31-.65 1.9-1.23l.06-.06c1.24-1.272 1.63-2.708 1.16-3.174-.402-.406-1.637-.168-2.818.834a.112.112 0 0 1-.032.022l-.553-.753c-.027-.038-.06-.076-.086-.114C20.556.341 22.344.022 23.232.91c.992.997.471 3.077-1.191 4.74Z" fill="#fff"></path>
    <path d="M21.91 5.986c-.014-.06-.018-.12-.038-.18-.758.705-1.576 1.192-2.35 1.414-.12.033-.233.06-.347.082a1.61 1.61 0 0 1-.16.229c.054-.007.104-.005.16-.015.114-.022.227-.049.347-.081.774-.222 1.592-.71 2.35-1.414l.038-.035Z" fill="#30A784"></path>
    <path d="M19.243 7.708c.08-.14.132-.297.167-.462-.078.02-.157.041-.235.056a1.618 1.618 0 0 1-2.966-.345 1.62 1.62 0 0 0 1.62 1.574c.607 0 1.138-.33 1.414-.823Z" fill="#30A784"></path>
    <path d="M5.6 4.06a.542.542 0 0 0-.541.542v1.98L3.443 4.29a.54.54 0 0 0-.984.312V8.29a.542.542 0 0 0 1.083 0V6.31l1.616 2.292a.542.542 0 0 0 .984-.312V4.602c0-.3-.242-.542-.541-.542ZM8.987 7.747h-1.27v-.76h1.095a.542.542 0 0 0 0-1.083H7.718v-.76h1.184a.542.542 0 0 0 0-1.084H7.175a.542.542 0 0 0-.54.58l-.001 3.65a.542.542 0 0 0 .543.541h1.81a.542.542 0 0 0 0-1.084ZM15.002 4.102a.544.544 0 0 0-.66.39l-.51 1.985-.76-2.069a.542.542 0 0 0-1.016 0l-.76 2.069-.51-1.986a.54.54 0 1 0-1.05.27l.945 3.67a.54.54 0 0 0 1.034.052l.85-2.316.85 2.316a.542.542 0 0 0 .507.355h.027a.54.54 0 0 0 .498-.406l.945-3.67a.541.541 0 0 0-.39-.66Z" fill="#fff"></path>
</svg>