<svg width="23" height="23" viewBox="0 0 23 23" fill="none"
    xmlns="http://www.w3.org/2000/svg">
    <path d="M1.557 21.478H2.84l9.61-9.396-1.283-1.255-9.61 9.396v1.255ZM.938 23a.92.92 0 0 1-.67-.262.878.878 0 0 1-.268-.655v-2.125c0-.122.023-.239.068-.35A.918.918 0 0 1 .28 19.3l10.87-10.627 3.502 3.425L3.784 22.724a.942.942 0 0 1-.673.275H.938ZM18.488 7.955l-1.383 1.99a.459.459 0 0 1-.233.187.5.5 0 0 1-.285.018.613.613 0 0 1-.254-.124.432.432 0 0 1-.148-.254l-.497-2.36-2.369-.667a.487.487 0 0 1-.253-.167.521.521 0 0 1-.06-.527.52.52 0 0 1 .207-.215l2.146-1.199-.081-2.396a.438.438 0 0 1 .083-.283.54.54 0 0 1 .216-.18.555.555 0 0 1 .28-.043.46.46 0 0 1 .274.122l1.81 1.617 2.327-.816a.54.54 0 0 1 .301-.013.547.547 0 0 1 .234.14.466.466 0 0 1 .102.542l-1.02 2.195 1.51 1.902c.07.087.104.18.102.275a.585.585 0 0 1-.068.27.486.486 0 0 1-.497.251l-2.444-.265Z" fill="#fff"></path>
</svg>