<svg width="20" height="20" viewBox="0 0 20 20" fill="none"
    xmlns="http://www.w3.org/2000/svg">
    <path d="m16.285 17.147-5.234-5.233a4.764 4.764 0 0 1-1.437.807 4.937 4.937 0 0 1-1.681.292c-1.425 0-2.63-.493-3.617-1.48-.986-.986-1.48-2.191-1.48-3.615 0-1.424.494-2.63 1.48-3.617.986-.987 2.192-1.48 3.615-1.48 1.424 0 2.63.493 3.617 1.48.987.986 1.48 2.191 1.48 3.616 0 .595-.099 1.163-.299 1.705a4.768 4.768 0 0 1-.8 1.413l5.234 5.234-.878.878Zm-8.352-5.384c1.074 0 1.983-.373 2.728-1.118.745-.745 1.118-1.655 1.118-2.728 0-1.074-.373-1.983-1.118-2.729-.745-.745-1.654-1.117-2.728-1.117-1.074 0-1.983.372-2.729 1.117-.745.746-1.117 1.655-1.117 2.729 0 1.073.372 1.983 1.117 2.728.746.745 1.655 1.118 2.729 1.118Z" fill="#A3A3A3"></path>
    <path d="m16.285 17.147-5.234-5.233a4.764 4.764 0 0 1-1.437.807 4.937 4.937 0 0 1-1.681.292c-1.425 0-2.63-.493-3.617-1.48-.986-.986-1.48-2.191-1.48-3.615 0-1.424.494-2.63 1.48-3.617.986-.987 2.192-1.48 3.615-1.48 1.424 0 2.63.493 3.617 1.48.987.986 1.48 2.191 1.48 3.616 0 .595-.099 1.163-.299 1.705a4.768 4.768 0 0 1-.8 1.413l5.234 5.234-.878.878Zm-8.352-5.384c1.074 0 1.983-.373 2.728-1.118.745-.745 1.118-1.655 1.118-2.728 0-1.074-.373-1.983-1.118-2.729-.745-.745-1.654-1.117-2.728-1.117-1.074 0-1.983.372-2.729 1.117-.745.746-1.117 1.655-1.117 2.729 0 1.073.372 1.983 1.117 2.728.746.745 1.655 1.118 2.729 1.118Z" fill="#A3A3A3"></path>
</svg>