<svg width="24" height="24" viewBox="0 0 24 24" fill="none"
    xmlns="http://www.w3.org/2000/svg">
    <circle cx="12" cy="12" r="11.5" fill="#FFE8D2" stroke="#FF7900"></circle>
    <path fill-rule="evenodd" clip-rule="evenodd" d="m12.221 4.5-.084 2.118-.084.105c-.308-.356-1.08-1.087-1.08-1.087l.328 1.067-.132-.088.036.244c-.78-.536-1.879-.296-1.879-.296-.448-.536-.851-.724-.851-.724.203.268.443.864.443.864-.82.424-1.275 1.195-1.275 1.195.116-.064 1.107-.172 1.107-.172-.14.064-.731.76-.731.76a1.81 1.81 0 0 0-.94.272l.68-.04c-.584.332-.728 1.003-.728 1.003-.156 1.056.32 1.444.32 1.444l.116-.636.144.348v1.407c.107 1.195.294 1.693.4 1.888a1.7 1.7 0 0 0-.024.278c-.352-.085-.466.116-.466.116-.212.38-.008.764-.008.764.104.18.763.727.763.727.04.812.944 1.68.944 1.68.096.08.472.355.472.355.066.092.141.178.222.26v.001h.001c.038.038.077.075.117.111h-.002l.004.002.002.001c.022.039.274.453 1.036.657.224.103.379.155.379.155h-.004c.092.028.232.004.232.004v-.009l.002.001.004.004s.851-.04 2.634-1.743c0 0 .712-.64.832-1.375 0 0 .407.052.535-.088 0 0 .508-.208.48-.827l-.1-.612s-.084-.271-.545-.32c.21-.457.36-.942.44-1.439l.002.001.067-.15.005.005.599-1.367.52-1.175-.005-.002.013-.03 2.34-1.207-7.28-4.45Z" fill="#FF7900"></path>
</svg>