<svg xmlns="http://www.w3.org/2000/svg" viewBox="-255 347 100 100" xml:space="preserve">
    <path fill="#3C61AC" d="M-201.6 402.2h-.8v-.1h-1.2v.1h-2.2v-.2h-1.1v.2h-.8c-.3 0-.6.3-.6.6v15.3c0 2 1.6 3.6 3.6 3.6s3.6-1.6 3.6-3.6v-15.3c.1-.4-.1-.6-.5-.6zm-5.4 1.1h4.9v.8h-4.9v-.8zm4.9 14.8c0 1.3-1.1 2.4-2.4 2.4-1.3 0-2.4-1.1-2.4-2.4v-12.8h4.9v12.8z" style="fill: rgb(59, 97, 173);"></path>
    <path fill="#ff6c00" d="M-197.7 377.6c-1.4-3-4.7-5.1-6.7-5.8h-.4c-1.9.7-5.3 2.7-6.7 5.8-3.5 7.8-2.6 19.4-2.5 19.9 0 .3.3.5.6.5h6.2c.4 0 .7.4.9.9-.3 0-.5.3-.5.6v2.6h5.3-.8v-2.6c0-.3-.2-.5-.5-.6.2-.5.5-.9.9-.9h6.2c.3 0 .6-.2.6-.5 0-.5.9-12.1-2.6-19.9zm-4.4 25.7v.8h-4.9v-.8h4.9zm-3.6-1.2v-2h2.2v2h-2.2zm1.6-3.2h-1c-.3-.7-.8-1.6-1.6-1.9.1-1.5.5-4.3 2.1-4.9 1.5.5 2 3.4 2.1 4.9-.8.3-1.3 1.2-1.6 1.9zm7.8-2h-5.1c-.1-1.5-.6-5.3-3.1-5.9h-.3c-2.5.6-3 4.5-3.1 5.9h-5.1c-.1-2.4-.5-12.2 2.5-18.8 1.1-2.6 4.1-4.5 5.8-5.1 1.7.6 4.7 2.5 5.8 5.1 3.1 6.6 2.8 16.4 2.6 18.8z" style="fill: rgb(34, 177, 188);"></path>
</svg>