<svg xmlns="http://www.w3.org/2000/svg" viewBox="-255 347 100 100" xml:space="preserve">
    <path fill="#3B61AD" d="M-224.2 407.6h38.4c.9 0 1.6-.7 1.6-1.6v-22.4c0-.9-.7-1.6-1.6-1.6h-38.4c-.9 0-1.6.7-1.6 1.6V406c0 .9.7 1.6 1.6 1.6zm0-23.2c0-.4.4-.8.8-.8h36.8c.4 0 .8.4.8.8v20.8c0 .4-.4.8-.8.8h-36.8c-.4 0-.8-.4-.8-.8v-20.8zm42.4 24.8h-46.4c-.4 0-.8.4-.8.8s.4.8.8.8h46.4c.4 0 .8-.4.8-.8s-.4-.8-.8-.8z" style="fill: rgb(59, 97, 173);"></path>
    <path fill="#ff6c00" d="M-181.8 409.2h-46.4c-.4 0-.8.4-.8.8s.4.8.8.8h46.4c.4 0 .8-.4.8-.8s-.4-.8-.8-.8z" style="fill: rgb(34, 177, 188);"></path>
</svg>