<svg xmlns="http://www.w3.org/2000/svg" viewBox="-255 347 100 100" xml:space="preserve">
    <path fill="#3B61AD" d="M-183.8 377.5c-2.6-2.9-6.2-4.5-10-4.5-3 0-6.3 1.8-8.7 3.1-.9.5-2.1 1.1-2.4 1.2-.4 0-1.5-.7-2.4-1.2-2.4-1.3-5.7-3.1-8.7-3.1-3.9 0-7.5 1.6-10 4.5-2.5 2.8-3.8 6.4-3.8 10.2 0 5.5 2 13.3 5.3 20.9 1.5 3.4 3 6.3 4.5 8.4 1.8 2.5 3.3 3.8 4.6 3.8.6 0 1.7-.3 2.3-2 .6-1.7 1.1-3.6 1.7-5.6 1.5-5.4 3.4-12 6.4-12h.2c1.3 0 2.6 1.2 3.7 3.5 1.1 2.4 2 5.5 2.8 8.5.5 2 1.1 3.9 1.6 5.5.6 1.7 1.7 2 2.3 2 1.3 0 2.9-1.3 4.6-3.8 1.5-2.2 3.1-5.1 4.5-8.5 3.3-7.6 5.3-15.4 5.3-20.7 0-3.8-1.4-7.5-3.8-10.2m-11 3.9s-3.2-.2-6-.9c-1.3-.3-2.8-1-2.8-1.2 0-.2 1.7-1.2 2.1-1.4 2.2-1.2 5.2-2.9 7.7-2.9 7.4 0 11.8 6.5 11.8 12.7 0 5-2 12.6-5.1 19.9-1.4 3.2-2.9 6.1-4.3 8.2-1.6 2.3-2.6 3-3 3-.2 0-.2-.2-.4-.6-.6-1.6-1.1-3.4-1.6-5.4-.9-3.1-1.7-6.3-2.9-8.9-1.5-3.2-3.3-4.7-5.5-4.7h-.2c-2.1 0-3.9 1.5-5.4 4.7-1.2 2.5-2.1 5.7-3 8.8-.6 2-1.1 3.9-1.7 5.5-.1.4-.2.6-.4.6s-1 0-3-2.9c-1.4-2-2.9-4.9-4.3-8.1-3.1-7.2-5.1-14.9-5.1-20 0-6.2 4.4-12.7 11.8-12.7 1.9 0 4.5.9 6.8 2.3.3.2.8.6 1.3.9.2.1.4.3.5.4.5.4 1.3.9 2.1 1.4.4.2.8.5 1.3.7 1.9.8 3.8 1.2 5.8 1.2 2.1 0 3.4-.4 3.5-.4 0 0 .3-.1.3-.2h-.3z" style="fill: rgb(59, 97, 173);"></path>
    <path fill="#ff6c00" d="M-217 378.3c-2.2.8-7.8 6.6-6.4 13.8" style="fill: rgb(34, 177, 188);"></path>
</svg>