<svg xmlns="http://www.w3.org/2000/svg" viewBox="-255 347 100 100" xml:space="preserve">
    <path fill="#3B61AD" d="M-199.2 411.3c-.4-.7-3.1-5.3-.1-8.3.3-.3.4-.7.2-1-.1-.3-.5-.6-.9-.6h-28.6c-.5 0-.9.4-.9.9v9.6c0 .5.4.9.9.9h28.7c.5 0 .9-.4.9-.9 0-.2-.1-.4-.2-.6zm-29-.2v-8h27c-.6 1.1-.8 2.2-.8 3.4h-20.4c-.4 0-.7.3-.7.7 0 .4.3.7.7.7h20.5c.2 1.3.6 2.5 1 3.3h-27.3zm-.5-11.3h28.7c.5 0 .9-.4.9-.9 0-.2-.1-.4-.2-.6-.4-.7-3-5.4-.1-8.3.3-.3.3-.7.2-1-.1-.3-.5-.6-.9-.6h-28.6c-.5 0-.9.4-.9.9v9.6c0 .5.4.9.9.9zm.4-9.7h27c-.6 1.1-.8 2.2-.8 3.4h-20.4c-.4 0-.7.3-.7.7 0 .4.3.7.7.7h20.5c.2 1.3.6 2.5 1 3.3h-27.3v-8.1z" style="fill: rgb(59, 97, 173);"></path>
    <path fill="#ff6c00" d="m-180.4 407.9-7.6-27.6c-.1-.5-.7-.8-1.2-.7-.2.1-.4.2-.5.4-.5.6-4.4 4.4-8 2.3-.3-.2-.7-.2-1 .1-.3.2-.4.6-.3 1l7.6 27.6c.1.5.7.8 1.1.7l9.2-2.5c.5-.2.8-.8.7-1.3zm-9.5 2.3-7.1-26c1.2.3 2.4.2 3.4-.1l5.4 19.7c.1.4.5.6.8.5.4-.1.6-.5.5-.8l-5.4-19.7c1.2-.5 2.2-1.3 3-1.9l7.2 26.3-7.8 2z" style="fill: rgb(34, 177, 188);"></path>
</svg>