<svg xmlns="http://www.w3.org/2000/svg" viewBox="-255 347 100 100" xml:space="preserve">
    <path fill="#3B61AD" d="M-193.2 384.7c-2.2 2.7.4 6.8.4 6.8.2.4.1.9-.2 1.1-.1.1-.3.1-.4.1-.3 0-.5-.1-.7-.4-.1-.2-3.2-5-.3-8.7 2-2.5-.8-6-.9-6.1-.3-.3-.2-.9.1-1.2.3-.3.9-.2 1.2.1 0 0 .9 1.1 1.5 2.6.7 2.3.5 4.2-.7 5.7zm5.5 0c1.2-1.5 1.4-3.4.6-5.5-.6-1.5-1.5-2.6-1.5-2.6-.3-.3-.8-.4-1.2-.1-.3.3-.4.8-.1 1.2 0 0 2.9 3.5.9 6.1-2.9 3.7.2 8.5.3 8.7.2.2.4.4.7.4.2 0 .3 0 .4-.1.4-.2.5-.8.2-1.1.1-.2-2.4-4.3-.3-7zm-33.9-5.2c-.6-1.5-1.5-2.6-1.5-2.6-.3-.3-.8-.4-1.2-.1-.3.3-.4.8-.1 1.2 0 0 2.9 3.5.9 6.1-2.9 3.7.2 8.5.3 8.7.2.2.4.4.7.4.2 0 .3 0 .4-.1.4-.2.5-.8.2-1.1 0 0-2.6-4.1-.4-6.8 1.3-1.6 1.5-3.6.7-5.7zm5.5 0c-.6-1.5-1.5-2.6-1.5-2.6-.3-.3-.8-.4-1.2-.1-.3.3-.4.8-.1 1.2 0 0 2.9 3.5.9 6.1-2.9 3.7.2 8.5.3 8.7.2.2.4.4.7.4.2 0 .3 0 .4-.1.4-.2.5-.8.2-1.1 0 0-2.6-4.1-.4-6.8 1.3-1.6 1.5-3.6.7-5.7z" style="fill: rgb(34, 177, 188);"></path>
    <path fill="#ff6c00" d="M-183 411h-1.7c-.4-10.3-8.5-18.6-18.6-19.5v-.8c1-.6 1.7-1.7 1.7-3 0-1.9-1.5-3.4-3.4-3.4h-.1c-1.9 0-3.4 1.5-3.4 3.4 0 1.2.6 2.3 1.7 2.9v.8c-10.1.9-18.2 9.2-18.6 19.5h-1.7c-1.5 0-2.7 1.2-2.7 2.7v1c0 1.5 1.2 2.7 2.7 2.7h44.3c1.5 0 2.7-1.2 2.7-2.7v-1c-.1-1.4-1.4-2.6-2.9-2.6zm-24-23.3c0-1 .8-1.8 1.8-1.8h.1c1 0 1.8.8 1.8 1.8 0 .7-.5 1.4-1.1 1.7-.3.1-.5.4-.5.8v1.3h-.3v-1.3c0-.3-.2-.6-.5-.8-.8-.3-1.3-1-1.3-1.7zm25.1 27c0 .6-.5 1.1-1.1 1.1h-44.3c-.6 0-1.1-.5-1.1-1.1v-1c0-.6.5-1.1 1.1-1.1h31c.5 0 .8-.4.8-.8 0-.5-.4-.8-.8-.8h-27.6c.4-9.9 8.6-17.9 18.7-17.9h.2c10 0 18.2 8 18.7 17.9h-4.7c-.5 0-.8.4-.8.8 0 .5.4.8.8.8h8.1c.6 0 1.1.5 1.1 1.1v1z" style="fill: rgb(59, 97, 173);"></path>
</svg>