<svg width="48" height="48" viewBox="0 0 48 48" fill="none"
    xmlns="http://www.w3.org/2000/svg">
    <path fill-rule="evenodd" clip-rule="evenodd" d="M20.973 20.24c.346-.2.671-.44.965-.717 2.116-1.982 2.221-5.327.235-7.456a5.237 5.237 0 0 0-7.439-.266c-2.115 1.983-2.22 5.327-.234 7.457a5.237 5.237 0 0 0 6.473.981Zm-6.813-4.728a4.146 4.146 0 0 1 1.316-2.915 4.149 4.149 0 0 1 5.507-.16l-6.036 5.654a4.175 4.175 0 0 1-.787-2.579Zm1.53 3.376 6.034-5.655c1.207 1.685 1.017 4.046-.528 5.494a4.15 4.15 0 0 1-5.506.16Z" fill="#48639E"></path>
    <path fill-rule="evenodd" clip-rule="evenodd" d="M34.279 29.751c-.128-.632-.517-1.303-1.158-1.993l-7.806-9.491-.023-.026a3.425 3.425 0 0 0-.477-.42.542.542 0 0 0-.83.255 5.32 5.32 0 0 1-1.398 2.142 5.358 5.358 0 0 1-2.227 1.253.54.54 0 0 0-.392.576.546.546 0 0 0 .08.237c.12.19.258.368.413.53l8.926 8.442c1.586 1.694 2.837 1.52 3.608 1.075.031-.018.062-.042.094-.062l2.379 2.55a.543.543 0 0 0 .766.027.544.544 0 0 0 .024-.768l-2.378-2.55a2.19 2.19 0 0 0 .398-1.776h.001Zm-1.064.211c.09.442-.05.817-.437 1.18-.108.1-.218.183-.327.246-.235.136-.948.547-2.285-.885a1.084 1.084 0 0 0-.024-.024l-8.705-8.233a6.455 6.455 0 0 0 3.245-3.041l7.614 9.256a.478.478 0 0 0 .022.025c.508.545.81 1.041.897 1.476Z" fill="#24A7D0"></path>
</svg>