<svg xmlns="http://www.w3.org/2000/svg" viewBox="-255 347 100 100" xml:space="preserve">
    <path fill="#3B61AD" d="M-179.6 423.2c-.3-4.5-3.2-8.2-7.2-9.7 1.8-6.5 2.1-13.5.9-20.4-1-5.5-2.7-9.3-3.1-10l4.2-4.2c.5-.5.8-1.3.8-2.1s-.4-1.5-1-2c-5.5-4.6-12.4-7.1-19.6-7.1s-14.1 2.5-19.6 7.1c-.6.5-.9 1.2-1 2 0 .8.3 1.5.8 2.1l4.3 4.3c-.5.9-2.1 4.6-3.1 9.9-1.2 6.8-.9 13.9.9 20.3-4.1 1.5-7.1 5.3-7.3 9.8v.7c0 .2 0 .3.1.4.4 1.6 1.8 2.8 3.5 2.8h42.6c1.7 0 3.1-1.2 3.5-2.8.1-.1.1-.3.1-.4v-.5c.2-.1.2-.1.2-.2zm-8-29.8c.8 4.6 1.3 11.8-.9 19.6-.7-.1-1.4-.2-2.1-.2-.2-.4-.6-.7-1-.9l-4.6-1.7c-.2-.1-.3-.1-.5-.1-.5-1.1-.5-2.5-.5-3.7v-.2c.6-.6 1.3-1.3 1.9-2 2.9-3.5 4.6-7.8 4.6-11.5 0-2.8-1.2-4.3-4.3-5.5-1.7-.6-3.8-.8-5.9-.9-4-.2-8.1-.4-11.1-4.1 2.3-1.1 4.8-1.7 7.4-1.7 4.5 0 8.7 1.7 12 4.8.2.2.4.2.6.2.2 0 .4-.1.6-.3l1-1c.6 1.4 2 4.7 2.8 9.2zm-12.5 31.9c1.3-5 2.7-10.6 3.3-13.4h.1l4.6 1.7c-1.4 3.5-3.3 7.9-5.2 11.7h-2.8zm-7.4 0c-.9-3.6-1.9-7.5-2.6-10.5 1.5 1.2 3.4 1.9 5.5 1.9 2 0 3.9-.6 5.3-1.7-.7 3-1.7 6.8-2.6 10.3h-5.6zm-4.5 0c-1.6-3.2-3.4-7.1-5.3-11.7l4.6-1.7c.6 2.8 2 8.4 3.3 13.4h-2.6zm-4.7-39.8s0-.1 0 0c1-.9 2-1.7 3.1-2.3 3.5 4.6 8.4 4.8 12.6 5 2 .1 3.9.2 5.4.8 2.7 1 3.1 2 3.1 3.8 0 3.3-1.6 7.1-4.2 10.4-2.5 3.1-5.6 5-7.9 5s-5.4-1.9-7.9-5c-2.6-3.2-4.2-7.1-4.2-10.4v-7.3zm12.1 24.4c1.8 0 3.8-.8 5.7-2.2 0 1 .2 2.1.6 3.1-.1.1-.1.2-.2.3-.7 2.2-3.3 3.8-6.1 3.8-2.9 0-5.4-1.6-6.1-3.8 0-.1-.1-.2-.2-.3.5-1 .6-2.1.7-3.1 1.9 1.4 3.8 2.2 5.6 2.2zm-18.8-33c0-.3.1-.5.3-.7 5.2-4.3 11.7-6.7 18.5-6.7 6.7 0 13.3 2.4 18.5 6.7.2.2.3.4.3.7 0 .3-.1.6-.3.8l-5.9 5.9c-3.5-3-8-4.7-12.6-4.7s-9.1 1.7-12.6 4.7l-5.9-5.9c-.2-.2-.3-.5-.3-.8zm2 16.5c.8-4.4 2.1-7.6 2.7-8.9l.3.3v8c0 3.6 1.7 7.9 4.6 11.5.6.8 1.3 1.4 1.9 2.1v.1c0 1.2 0 2.6-.5 3.7-.2 0-.5 0-.7.1l-4.6 1.7c-.4.2-.8.5-1 .9-.6 0-1.2.1-1.8.2-2.3-8-1.8-15.1-.9-19.7zm-6.5 30.1c.2-4.9 4.2-8.9 9.1-9 1.7 4.1 3.3 7.8 4.8 10.8h-12c-1 0-1.8-.8-1.9-1.8zm44.6 1.8h-12.1c1.7-3.6 3.4-7.6 4.7-10.8 5 0 9.1 4 9.3 9 0 1-.8 1.8-1.9 1.8z" style="fill: rgb(59, 97, 173);"></path>
    <path fill="#ff6c00" d="M-207.4 375.1h1.9v1.9c0 .5.4.9.9.9s.9-.4.9-.9v-1.9h1.9c.5 0 .9-.4.9-.9s-.4-.9-.9-.9h-1.9v-1.9c0-.5-.4-.9-.9-.9s-.9.4-.9.9v1.9h-1.9c-.5 0-.9.4-.9.9s.4.9.9.9z" style="fill: rgb(34, 177, 188);"></path>
</svg>