<svg xmlns="http://www.w3.org/2000/svg" viewBox="-255 347 100 100" xml:space="preserve">
    <path fill="#3B61AD" d="M-203.1 370.8c-6.3 0-11.5 5.1-11.5 11.5v29.1c0 6.3 5.1 11.5 11.5 11.5 6.3 0 11.5-5.1 11.5-11.5v-29.1c-.1-6.3-5.2-11.5-11.5-11.5zm0 2c5.2 0 9.5 4.2 9.5 9.5v13.5h-18.9v-13.5c-.1-5.2 4.1-9.5 9.4-9.5zm0 48c-5.2 0-9.5-4.3-9.5-9.5v-13.5h18.9v13.5c0 5.3-4.2 9.5-9.4 9.5zm5.8-27.5v-7.7c0-.6.4-1 1-1s1 .4 1 1v7.7c0 .6-.4 1-1 1s-1-.4-1-1z" style="fill: rgb(61, 98, 174);"></path>
    <path fill="#ff6c00" d="M-197.3 393.3v-7.7c0-.6.4-1 1-1s1 .4 1 1v7.7c0 .6-.4 1-1 1s-1-.4-1-1z" style="fill: rgb(36, 177, 188);"></path>
</svg>