<svg xmlns="http://www.w3.org/2000/svg" viewBox="-255 347 100 100" xml:space="preserve">
    <path fill="#3C61AC" d="M-198.9 388.6v-14h2v-2h-16v2h2v14s-14 20-14 26 6 6 6 6h28s6 0 6-6-14-26-14-26zm8 30h-28c-.7 0-4-.2-4-4 0-3.9 8.4-17.3 13.6-24.8l.4-.5v-14.6h8v14.6l.4.5c5.3 7.5 13.6 20.9 13.6 24.8 0 3.6-3 3.9-4 4z" style="fill: rgb(60, 97, 172);"></path>
    <path fill="#ff6c00" d="M-210.8 411c0 1.1-.9 2-2 2s-2-.9-2-2 .9-2 2-2c1.1.1 2 .9 2 2zm9.3.2c-1.5 0-2.7 1.2-2.7 2.7 0 1.5 1.2 2.7 2.7 2.7 1.5 0 2.7-1.2 2.7-2.7 0-1.5-1.2-2.7-2.7-2.7zm-4.6-3.5c-1.4 0-2.5 1.1-2.5 2.5s1.1 2.5 2.5 2.5 2.5-1.1 2.5-2.5c0-1.3-1.1-2.5-2.5-2.5zm3.2-4.4c0-2.1-1.7-3.7-3.7-3.7-2.1 0-3.7 1.7-3.7 3.7 0 2.1 1.7 3.7 3.7 3.7 2.1.1 3.7-1.6 3.7-3.7zm3.9-1.7c-1.1 0-2 .9-2 2s.9 2 2 2 2-.9 2-2-.9-2-2-2zm-1.1 5.4c-.7 0-1.3.6-1.3 1.3 0 .7.6 1.3 1.3 1.3.7 0 1.3-.6 1.3-1.3 0-.7-.6-1.3-1.3-1.3z" style="fill: rgb(34, 177, 188);"></path>
</svg>