<svg xmlns="http://www.w3.org/2000/svg" viewBox="-255 347 100 100" xml:space="preserve">
    <path fill="#3B61AD" d="M-214.8 392.5c1.2.7 2.5 1.1 3.9 1.1s2.7-.4 3.9-1.1c2.7-1.6 4.2-4.7 4.2-8.6v-8.1c0-2.1-1.7-3.7-3.7-3.7h-8.8c-2.1 0-3.7 1.7-3.7 3.7v6.2s-.1 2.3 0 2.7c.2 3.5 1.7 6.3 4.2 7.8zm-2.5-17.3c0-.9.7-1.6 1.6-1.6h9.7c.9 0 1.6.7 1.6 1.6v6.8h-12.9v-6.8zm12.8 9c-.1 3.2-1.3 5.8-3.4 7.1-1.8 1.1-4.1 1.1-6 0-2.1-1.3-3.3-3.8-3.4-7.1h12.8zm-3.9-6.1c0 .6-.5 1.1-1.1 1.1h-.4v.4c0 .6-.5 1.1-1.1 1.1s-1.1-.5-1.1-1.1v-.4h-.4c-.6 0-1.1-.5-1.1-1.1s.5-1.1 1.1-1.1h.4v-.4c0-.6.5-1.1 1.1-1.1s1.1.5 1.1 1.1v.4h.4c.6 0 1.1.5 1.1 1.1zm6.1 24.1c-.5.3-1.2.1-1.5-.5-1.7-3.1-5.7-4-8.7-3.5-3.3.5-5.6 2.5-6.1 5.3l-2.4 12.9h14.7c.6 0 1.1.5 1.1 1.1 0 .6-.5 1.1-1.1 1.1h-16c-.3 0-.6-.1-.9-.4-.2-.3-.3-.6-.2-.9l2.6-14.2c.7-3.7 3.7-6.4 8-7.1 2.1-.3 4.3-.1 6.2.6 2.1.8 3.8 2.2 4.7 4 .3.6.1 1.3-.4 1.6z" style="fill: rgb(59, 97, 173);"></path>
    <path fill="#ff6c00" d="M-197.9 406.7c0-1.1.8-1.9 1.5-1.9s1.5.8 1.5 1.9c0 1.1-.8 1.9-1.5 1.9-.7.1-1.5-.7-1.5-1.9zm-5.8.9h-.2c-.3 0-.5.2-.7.4-.3.4-.4 1.1-.2 1.7.3 1.1 1.3 1.7 2.1 1.7h.2c.3 0 .5-.2.7-.4.3-.4.4-1.1.2-1.7-.4-1.1-1.4-1.7-2.1-1.7zm15.4.4c-.2-.2-.4-.3-.6-.3h-.2c-.7 0-1.6.5-1.9 1.4-.2.5-.1 1 .2 1.3.2.2.4.3.6.3h.2c.7 0 1.6-.5 1.9-1.3.2-.6.1-1.1-.2-1.4zm-8 5c-1.5 0-2.8 1.4-2.8 3.1 0 1.7 1.3 3.1 2.8 3.1 1.5 0 2.8-1.4 2.8-3.1 0-1.7-1.2-3.1-2.8-3.1z" style="fill: rgb(34, 177, 188); stroke: rgb(34, 177, 188); stroke-miterlimit: 10;"></path>
</svg>