<svg width="48" height="48" viewBox="0 0 48 48" fill="none"
    xmlns="http://www.w3.org/2000/svg">
    <path fill-rule="evenodd" clip-rule="evenodd" d="M39.428 13.715v6.022h-1.405v-3.656L22.758 31.57l-4.864-4.936-8.328 8.451-.995-1.008 9.323-9.46 4.864 4.936 14.204-14.41h-3.469v-1.428h5.936-.001Z" fill="#48639E"></path>
    <path fill-rule="evenodd" clip-rule="evenodd" d="m18.408 34.076.995 1.009 2.191-2.224-.994-1.008-2.192 2.223Zm15.325.02.994 1.008 4.347-4.41-.994-1.01-4.347 4.411Zm-5.183 0 .994 1.008 9.68-9.822-.994-1.008-9.68 9.822Zm7.97-13.348L23.364 34.096l.995 1.008 13.153-13.346-.994-1.009Zm-18.278 8.316-4.959 5.031.994 1.009 4.96-5.032-.995-1.008Z" fill="#24A7D0"></path>
</svg>